<?xml version="1.0" encoding="iso-8859-1"?>
<!-- Generator: Adobe Illustrator 19.0.0, SVG Export Plug-In . SVG Version: 6.00 Build 0)  -->
<svg version="1.1" id="Layer_1" xmlns="http://www.w3.org/2000/svg" xmlns:xlink="http://www.w3.org/1999/xlink" x="0px" y="0px"
	 viewBox="0 0 512 512" style="enable-background:new 0 0 512 512;" xml:space="preserve">
<polygon style="fill:#E6E6E6;" points="301.273,49.565 8.679,49.565 135.894,462.435 428.488,462.435 "/>
<path style="fill:#DD852C;" d="M421.394,223.04c-34.822,34.822-71.61,60.543-101.818,73.183l-22.69-22.69l-33.723-33.723
	c12.641-30.208,38.361-66.996,73.183-101.818c51.95-51.938,108.294-83.661,140.584-81.857c7.853,0.428,14.294,2.845,18.886,7.436
	C519.291,87.059,485.972,158.461,421.394,223.04z"/>
<path style="fill:#BF6D22;" d="M476.929,56.134c0,0-170.398,111.764-180.044,217.398l-33.723-33.723
	c12.641-30.208,38.361-66.996,73.183-101.818C388.295,86.053,444.639,54.33,476.929,56.134z"/>
<path style="fill:#FFFFFF;" d="M319.576,296.224l-23.203,8.964c-11.648,4.5-21.231,13.135-26.914,24.255l-9.983,19.532
	l-53.973,4.907l4.907-53.973l19.532-9.983c11.12-5.683,19.755-15.266,24.255-26.914l8.964-23.203"/>
<path d="M501.945,57.442c-14.13-14.13-40.454-13.257-74.122,2.455c-1.331,0.621-2.678,1.291-4.023,1.952l-28.358-7.51
	c-25.169-6.667-51.816,5.442-63.344,28.796l-7.709,15.618c-11.629,23.554-34.132,39.561-60.197,42.819
	c-4.752,0.594-8.124,4.929-7.531,9.682c0.549,4.389,4.285,7.599,8.596,7.599c0.36,0,0.722-0.023,1.087-0.068
	c31.868-3.983,59.382-23.554,73.599-52.353l7.71-15.62c7.888-15.979,26.116-24.269,43.347-19.706l10.966,2.904
	c-23.721,14.679-48.462,34.554-71.754,57.846c-34.18,34.18-61.535,72.305-75.052,104.603c-0.012,0.028-0.017,0.057-0.028,0.084
	c-0.02,0.047-0.043,0.091-0.061,0.139l-8.964,23.203c-3.737,9.672-10.879,17.597-20.111,22.316l-19.533,9.983
	c-2.651,1.354-4.421,3.974-4.691,6.938l-4.907,53.973c-0.234,2.564,0.685,5.099,2.505,6.918c1.634,1.634,3.843,2.541,6.133,2.541
	c0.261,0,0.524-0.012,0.786-0.036l53.973-4.907c2.964-0.269,5.584-2.04,6.939-4.691l9.983-19.532
	c4.719-9.232,12.644-16.375,22.317-20.112l23.203-8.964c0.038-0.015,0.074-0.035,0.112-0.05c0.036-0.015,0.074-0.024,0.11-0.039
	c32.3-13.518,70.426-40.874,104.603-75.052c8.086-8.086,15.873-16.465,23.143-24.904c3.126-3.629,2.719-9.106-0.91-12.232
	c-3.629-3.125-9.105-2.721-12.233,0.91c-6.99,8.114-14.48,16.175-22.266,23.959c-30.761,30.762-64.592,55.619-93.742,68.994
	l-48.033-48.033c13.373-29.15,38.231-62.979,68.994-93.742c26.416-26.416,54.603-48.169,80.65-62.393l54.533,54.533
	c-5.742,10.485-12.811,21.5-21.086,32.784c-2.832,3.863-1.998,9.291,1.864,12.124c3.864,2.833,9.29,2,12.124-1.864
	c18.27-24.912,31.188-48.942,37.357-69.493C516.776,80.322,509.558,65.055,501.945,57.442z M304.021,292.935l-10.773,4.162
	c-13.658,5.277-24.849,15.362-31.512,28.399l-7.806,15.275l-25.352,2.305l7.102-7.102c0.838,0.142,1.686,0.226,2.535,0.226
	c3.85,0,7.7-1.465,10.631-4.396l0,0c5.862-5.862,5.862-15.4,0-21.262c-2.84-2.84-6.615-4.404-10.631-4.404
	c-4.015,0-7.791,1.565-10.631,4.404c-3.577,3.577-4.959,8.521-4.17,13.166l-7.102,7.103l2.305-25.352l15.275-7.806
	c13.036-6.664,23.123-17.855,28.398-31.512l4.162-10.773L304.021,292.935z M491.306,104.828c-1.435,4.781-3.296,9.796-5.548,14.999
	l-46.193-46.192c23.699-10.274,42.254-11.786,50.111-3.927C495.715,75.745,496.293,88.218,491.306,104.828z"/>
<path d="M48.321,178.236c4.577-1.411,7.146-6.265,5.735-10.843L20.423,58.239h274.441l9.069,29.431
	c1.41,4.579,6.262,7.145,10.843,5.735c4.577-1.411,7.146-6.265,5.734-10.843l-10.954-35.55c-1.121-3.638-4.483-6.12-8.289-6.12
	H8.674c-2.752,0-5.343,1.307-6.978,3.522c-1.635,2.215-2.122,5.075-1.311,7.706L37.477,172.5c1.148,3.727,4.58,6.121,8.286,6.121
	C46.61,178.622,47.471,178.497,48.321,178.236z"/>
<path d="M314.996,453.761H142.293l-79.675-258.58c-1.411-4.577-6.266-7.145-10.843-5.735c-4.577,1.411-7.146,6.265-5.735,10.843
	l81.56,264.699c1.121,3.638,4.483,6.12,8.289,6.12h179.107c4.791,0,8.674-3.884,8.674-8.674S319.787,453.761,314.996,453.761z"/>
<path d="M385.403,293.178c-1.411-4.577-6.26-7.146-10.843-5.735c-4.577,1.411-7.146,6.265-5.734,10.843l47.908,155.475h-72.826
	c-4.791,0-8.674,3.884-8.674,8.674s3.882,8.674,8.674,8.674h84.575c2.754,0,5.343-1.307,6.978-3.522
	c1.635-2.216,2.121-5.075,1.31-7.706L385.403,293.178z"/>
<path d="M94.683,115.486c0-4.79-3.884-8.674-8.674-8.674H75.705c-4.79,0-8.674,3.884-8.674,8.674c0,4.79,3.884,8.674,8.674,8.674
	h10.304C90.8,124.159,94.683,120.276,94.683,115.486z"/>
<path d="M283.539,115.486c0-4.79-3.882-8.674-8.674-8.674H114.922c-4.79,0-8.674,3.884-8.674,8.674c0,4.79,3.884,8.674,8.674,8.674
	h159.944C279.657,124.159,283.539,120.276,283.539,115.486z"/>
<path d="M88.253,164.903h56.738c4.79,0,8.674-3.884,8.674-8.674c0-4.79-3.884-8.674-8.674-8.674H88.253
	c-4.79,0-8.674,3.884-8.674,8.674C79.579,161.019,83.463,164.903,88.253,164.903z"/>
<path d="M236.354,164.903c4.79,0,8.674-3.884,8.674-8.674c0-4.79-3.884-8.674-8.674-8.674h-62.451c-4.79,0-8.674,3.884-8.674,8.674
	c0,4.79,3.884,8.674,8.674,8.674H236.354z"/>
<path d="M258.906,196.961c0-4.79-3.884-8.674-8.674-8.674H100.812c-4.79,0-8.674,3.884-8.674,8.674s3.884,8.674,8.674,8.674h149.419
	C255.022,205.635,258.906,201.751,258.906,196.961z"/>
<path d="M184.89,237.704c0-4.79-3.884-8.674-8.674-8.674H113.36c-4.79,0-8.674,3.884-8.674,8.674c0,4.79,3.884,8.674,8.674,8.674
	h62.856C181.006,246.378,184.89,242.494,184.89,237.704z"/>
<path d="M147.323,375.241l15.613,13.878c1.647,1.464,3.705,2.192,5.762,2.192c2.17,0,4.337-0.811,6.013-2.422l15.034-14.456
	c3.453-3.32,3.561-8.811,0.241-12.263c-3.32-3.452-8.81-3.562-12.264-0.241l-9.253,8.898l-9.619-8.55
	c-3.582-3.183-9.063-2.86-12.245,0.72C143.421,366.576,143.744,372.058,147.323,375.241z"/>
<g>
</g>
<g>
</g>
<g>
</g>
<g>
</g>
<g>
</g>
<g>
</g>
<g>
</g>
<g>
</g>
<g>
</g>
<g>
</g>
<g>
</g>
<g>
</g>
<g>
</g>
<g>
</g>
<g>
</g>
</svg>
