<?xml version="1.0" encoding="UTF-8"?><svg id="Layer_1" xmlns="http://www.w3.org/2000/svg" width="512" height="512" xmlns:xlink="http://www.w3.org/1999/xlink" viewBox="0 0 512 512"><defs><style>.cls-1{fill:url(#linear-gradient-2);}.cls-2{fill:url(#radial-gradient-7);}.cls-3{fill:url(#radial-gradient-10);}.cls-4{fill:url(#radial-gradient-8);}.cls-5{fill:url(#radial-gradient-5);}.cls-6{fill:url(#radial-gradient-4);}.cls-7{fill:#20123b;}.cls-8{fill:url(#radial-gradient-6);}.cls-9{fill:url(#radial-gradient);}.cls-10{fill:url(#radial-gradient-2);}.cls-11{fill:url(#radial-gradient-3);}.cls-12{fill:url(#linear-gradient);}.cls-13{fill:url(#radial-gradient-9);}</style><linearGradient id="linear-gradient" x1="-424.31" y1="640.52" x2="-424.94" y2="639.89" gradientTransform="translate(204071.54 317808.16) scale(480 -496)" gradientUnits="userSpaceOnUse"><stop offset=".05" stop-color="#fff44f"/><stop offset=".37" stop-color="#ff980e"/><stop offset=".53" stop-color="#ff3647"/><stop offset=".7" stop-color="#e31587"/></linearGradient><radialGradient id="radial-gradient" cx="-424.1" cy="640.73" fx="-424.1" fy="640.73" r="1.04" gradientTransform="translate(163260.02 250318.9) scale(384 -390.47)" gradientUnits="userSpaceOnUse"><stop offset=".13" stop-color="#ffbd4f"/><stop offset=".28" stop-color="#ff980e"/><stop offset=".47" stop-color="#ff3750"/><stop offset=".78" stop-color="#eb0878"/><stop offset=".86" stop-color="#e50080"/></radialGradient><radialGradient id="radial-gradient-2" cx="-424.43" cy="640.28" fx="-424.43" fy="640.28" r="1.04" gradientTransform="translate(167306.53 250268.53) scale(393.6 -390.47)" gradientUnits="userSpaceOnUse"><stop offset=".3" stop-color="#960e18"/><stop offset=".35" stop-color="#b11927" stop-opacity=".74"/><stop offset=".43" stop-color="#db293d" stop-opacity=".34"/><stop offset=".5" stop-color="#f5334b" stop-opacity=".09"/><stop offset=".53" stop-color="#ff3750" stop-opacity="0"/></radialGradient><radialGradient id="radial-gradient-3" cx="-421.9" cy="640.21" fx="-421.9" fy="640.21" r="1.14" gradientTransform="translate(48912.71 125279.59) scale(115.24 -195.64)" gradientUnits="userSpaceOnUse"><stop offset=".13" stop-color="#fff44f"/><stop offset=".53" stop-color="#ff980e"/></radialGradient><radialGradient id="radial-gradient-4" cx="-423.73" cy="639.46" fx="-423.73" fy="639.46" r=".82" gradientTransform="translate(90666.2 149987.22) scale(213.48 -233.98)" gradientUnits="userSpaceOnUse"><stop offset=".35" stop-color="#3a8ee6"/><stop offset=".67" stop-color="#9059ff"/><stop offset="1" stop-color="#c139e6"/></radialGradient><radialGradient id="radial-gradient-5" cx="-423.26" cy="640.09" fx="-423.26" fy="640.09" r=".48" gradientTransform="translate(81571.82 149987.22) scale(192.13 -233.98)" gradientUnits="userSpaceOnUse"><stop offset=".21" stop-color="#9059ff" stop-opacity="0"/><stop offset=".97" stop-color="#6e008b" stop-opacity=".6"/></radialGradient><radialGradient id="radial-gradient-6" cx="-416.57" cy="639.15" fx="-416.57" fy="639.15" r="2.36" gradientTransform="translate(24622.51 37615.81) scale(58.52 -58.73)" gradientUnits="userSpaceOnUse"><stop offset=".1" stop-color="#ffe226"/><stop offset=".79" stop-color="#ff7139"/></radialGradient><radialGradient id="radial-gradient-7" cx="-424.27" cy="640.91" fx="-424.27" fy="640.91" r="1.47" gradientTransform="translate(191356.92 242174.19) scale(450.15 -377.88)" gradientUnits="userSpaceOnUse"><stop offset=".11" stop-color="#fff44f"/><stop offset=".46" stop-color="#ff980e"/><stop offset=".72" stop-color="#ff3647"/><stop offset=".9" stop-color="#e31587"/></radialGradient><radialGradient id="radial-gradient-8" cx="-424.35" cy="643.73" fx="-424.35" fy="643.73" r="2.84" gradientTransform="translate(-91372.92 74718.87) rotate(83.95) scale(152.72 -153.86) skewX(.09)" gradientUnits="userSpaceOnUse"><stop offset="0" stop-color="#fff44f"/><stop offset=".3" stop-color="#ff980e"/><stop offset=".57" stop-color="#ff3647"/><stop offset=".74" stop-color="#e31587"/></radialGradient><radialGradient id="radial-gradient-9" cx="-423.61" cy="640.61" fx="-423.61" fy="640.61" r="1.94" gradientTransform="translate(82909.47 122941.15) scale(195.14 -191.71)" gradientUnits="userSpaceOnUse"><stop offset=".14" stop-color="#fff44f"/><stop offset=".48" stop-color="#ff980e"/><stop offset=".66" stop-color="#ff3647"/><stop offset=".9" stop-color="#e31587"/></radialGradient><radialGradient id="radial-gradient-10" cx="-422.13" cy="640.5" fx="-422.13" fy="640.5" r="2.55" gradientTransform="translate(75733.04 102483.99) scale(178.59 -159.77)" gradientUnits="userSpaceOnUse"><stop offset=".09" stop-color="#fff44f"/><stop offset=".63" stop-color="#ff980e"/></radialGradient><linearGradient id="linear-gradient-2" x1="-424.35" y1="640.52" x2="-424.85" y2="639.95" gradientTransform="translate(204069.84 317808.16) scale(480 -496)" gradientUnits="userSpaceOnUse"><stop offset=".17" stop-color="#fff44f" stop-opacity=".8"/><stop offset=".6" stop-color="#fff44f" stop-opacity="0"/></linearGradient></defs><rect class="cls-7" width="512" height="512" rx="116" ry="116"/><g><path id="shape-base" class="cls-12" d="M437.57,182.91c-8.52-20.48-25.76-42.6-39.31-49.59,11.02,21.61,17.4,43.29,19.84,59.46,0,.03,.01,.11,.04,.33-22.16-55.22-59.72-77.49-90.4-125.97-1.55-2.45-3.1-4.91-4.62-7.5-.77-1.32-1.49-2.68-2.16-4.05-1.27-2.46-2.26-5.06-2.93-7.75,0-.26-.18-.49-.45-.53-.12-.03-.25-.03-.37,0-.03,0-.07,.04-.1,.05-.04,.02-.1,.06-.14,.08,.02-.03,.07-.1,.08-.11-49.22,28.83-65.92,82.15-67.45,108.83-19.65,1.35-38.45,8.59-53.92,20.78-1.62-1.37-3.31-2.65-5.08-3.83-4.47-15.62-4.66-32.16-.55-47.88-20.13,9.16-35.78,23.65-47.16,36.44h-.09c-7.77-9.84-7.22-42.29-6.78-49.07-.09-.42-5.79,2.96-6.54,3.47-6.85,4.89-13.26,10.38-19.15,16.4-6.7,6.79-12.82,14.13-18.3,21.94,0,0,0,.02,0,.03,0-.01,0-.02,0-.03-12.6,17.85-21.53,38.03-26.29,59.36-.09,.42-.17,.87-.26,1.29-.37,1.73-1.7,10.35-1.93,12.23-.02,.14-.03,.28-.04,.43-1.72,8.92-2.78,17.96-3.18,27.03,0,.33-.02,.67-.02,1,0,108.2,87.73,195.91,195.94,195.91,96.91,0,177.37-70.35,193.13-162.76,.33-2.51,.6-5.03,.89-7.56,3.89-33.6-.43-68.91-12.71-98.44Zm-225.83,153.35c.92,.44,1.78,.92,2.72,1.34,.04,.03,.09,.06,.13,.08-.96-.46-1.91-.93-2.85-1.42Zm206.42-143.1l-.03-.19c0,.07,.02,.14,.03,.21v-.02Z"/><path id="body-outer-ring" class="cls-9" d="M437.57,182.91c-8.52-20.48-25.76-42.6-39.31-49.59,11.02,21.61,17.4,43.29,19.84,59.46,0-.05,0,.04,.03,.18,0,.07,.02,.14,.03,.21,18.49,50.12,8.42,101.08-6.1,132.22-22.45,48.18-76.81,97.57-161.9,95.16-91.93-2.6-172.91-70.81-188.03-160.15-2.75-14.09,0-21.24,1.39-32.68-1.69,8.82-2.33,11.37-3.18,27.03,0,.33-.02,.67-.02,1,0,108.2,87.73,195.91,195.93,195.91,96.91,0,177.37-70.35,193.13-162.76,.33-2.51,.6-5.03,.89-7.56,3.89-33.6-.43-68.91-12.71-98.44Z"/><path id="body-outer-ring-shadow" class="cls-10" d="M437.57,182.91c-8.52-20.48-25.76-42.6-39.31-49.59,11.02,21.61,17.4,43.29,19.84,59.46,0-.05,0,.04,.03,.18,0,.07,.02,.14,.03,.21,18.49,50.12,8.42,101.08-6.1,132.22-22.45,48.18-76.81,97.57-161.9,95.16-91.93-2.6-172.91-70.81-188.03-160.15-2.75-14.09,0-21.24,1.39-32.68-1.69,8.82-2.33,11.37-3.18,27.03,0,.33-.02,.67-.02,1,0,108.2,87.73,195.91,195.93,195.91,96.91,0,177.37-70.35,193.13-162.76,.33-2.51,.6-5.03,.89-7.56,3.89-33.6-.43-68.91-12.71-98.44Z"/><path id="tail-tip" class="cls-11" d="M342.36,205.94c.43,.3,.82,.6,1.22,.9-4.92-8.73-11.04-16.72-18.19-23.73-60.91-60.9-15.97-132.05-8.39-135.66,.02-.03,.07-.1,.08-.11-49.22,28.83-65.92,82.15-67.45,108.83,2.28-.16,4.56-.35,6.88-.35,36.73,0,68.72,20.19,85.85,50.13h0Z"/><path id="globe-base" class="cls-6" d="M256.63,218.1c-.32,4.87-17.54,21.68-23.56,21.68-55.72,0-64.76,33.7-64.76,33.7,2.47,28.38,22.23,51.75,46.15,64.12,1.09,.56,2.2,1.07,3.3,1.58,1.9,.84,3.81,1.62,5.76,2.35,8.2,2.9,16.8,4.56,25.49,4.92,97.66,4.58,116.57-116.74,46.1-151.98,18.05-3.14,36.78,4.12,47.24,11.47-17.13-29.93-49.12-50.13-85.85-50.13-2.32,0-4.6,.19-6.88,.35-19.65,1.35-38.45,8.59-53.92,20.78,2.99,2.53,6.36,5.91,13.46,12.9,13.29,13.1,47.39,26.66,47.47,28.26h0Z"/><path id="globe-shadow" class="cls-5" d="M256.63,218.1c-.32,4.87-17.54,21.68-23.56,21.68-55.72,0-64.76,33.7-64.76,33.7,2.47,28.38,22.23,51.75,46.15,64.12,1.09,.56,2.2,1.07,3.3,1.58,1.9,.84,3.81,1.62,5.76,2.35,8.2,2.9,16.8,4.56,25.49,4.92,97.66,4.58,116.57-116.74,46.1-151.98,18.05-3.14,36.78,4.12,47.24,11.47-17.13-29.93-49.12-50.13-85.85-50.13-2.32,0-4.6,.19-6.88,.35-19.65,1.35-38.45,8.59-53.92,20.78,2.99,2.53,6.36,5.91,13.46,12.9,13.29,13.1,47.39,26.66,47.47,28.26h0Z"/><path id="ear" class="cls-8" d="M186.56,170.42c1.36,.88,2.72,1.78,4.06,2.69-4.47-15.62-4.66-32.16-.55-47.88-20.13,9.16-35.78,23.65-47.16,36.44,.94-.03,29.36-.54,43.65,8.75h0Z"/><path id="body" class="cls-2" d="M62.14,260.41c15.12,89.34,96.1,157.55,188.03,160.15,85.08,2.41,139.44-46.98,161.9-95.16,14.51-31.14,24.58-82.1,6.1-132.22v-.02s-.03-.19-.03-.19c-.02-.15-.03-.23-.03-.18,0,.03,.01,.11,.04,.33,6.95,45.38-16.13,89.34-52.22,119.07l-.11,.26c-70.31,57.25-137.6,34.54-151.22,25.25-.96-.46-1.91-.93-2.85-1.42-40.99-19.59-57.93-56.94-54.3-88.97-34.61,0-46.42-29.19-46.42-29.19,0,0,31.08-22.16,72.04-2.89,37.94,17.85,73.56,2.89,73.57,2.89-.07-1.59-34.17-15.16-47.47-28.25-7.1-7-10.48-10.37-13.46-12.9-1.62-1.37-3.31-2.65-5.08-3.83-1.34-.91-2.7-1.81-4.06-2.69-14.29-9.29-42.71-8.78-43.65-8.75h-.09c-7.77-9.84-7.22-42.29-6.78-49.07-.09-.42-5.79,2.96-6.54,3.47-6.85,4.89-13.26,10.38-19.15,16.4-6.7,6.79-12.82,14.14-18.3,21.95,0,0,0,.02,0,.03,0-.01,0-.02,0-.03-12.6,17.85-21.53,38.03-26.29,59.36-.09,.42-7.05,30.85-3.62,46.63h0Z"/><path id="tail-flame" class="cls-4" d="M325.38,183.1c7.15,7.02,13.27,15.01,18.19,23.73,1.08,.81,2.09,1.62,2.94,2.41,44.42,40.93,21.15,98.81,19.41,102.94,36.09-29.73,59.17-73.69,52.22-119.07-22.16-55.22-59.72-77.49-90.4-125.97-1.55-2.45-3.1-4.91-4.62-7.5-.77-1.32-1.49-2.68-2.16-4.05-1.27-2.46-2.26-5.06-2.93-7.75,0-.26-.18-.49-.45-.53-.12-.03-.25-.03-.37,0-.03,0-.07,.04-.1,.05-.04,.02-.1,.06-.14,.08-7.57,3.61-52.51,74.76,8.4,135.65h0Z"/><path id="tail-small" class="cls-13" d="M346.52,209.24c-.86-.79-1.86-1.6-2.94-2.41-.4-.3-.79-.6-1.22-.9-10.46-7.35-29.2-14.61-47.24-11.47,70.47,35.23,51.55,156.56-46.1,151.98-8.7-.35-17.29-2.01-25.49-4.92-1.94-.73-3.86-1.51-5.76-2.35-1.11-.5-2.21-1.01-3.3-1.58,.04,.03,.09,.06,.13,.08,13.62,9.29,80.91,32.01,151.22-25.25l.11-.26c1.74-4.12,25.01-62.01-19.41-102.94h0Z"/><path id="cheek-tufts" class="cls-3" d="M168.31,273.48s9.04-33.7,64.76-33.7c6.02,0,23.24-16.81,23.56-21.68s-35.63,14.96-73.57-2.89c-40.96-19.27-72.04,2.89-72.04,2.89,0,0,11.8,29.19,46.42,29.19-3.63,32.03,13.3,69.38,54.3,88.97,.92,.44,1.78,.92,2.72,1.34-23.93-12.37-43.68-35.74-46.15-64.12Z"/><path id="overlay-yellow" class="cls-1" d="M437.57,182.91c-8.52-20.48-25.76-42.6-39.31-49.59,11.02,21.61,17.4,43.29,19.84,59.46,0,.03,.01,.11,.04,.33-22.16-55.22-59.72-77.49-90.4-125.97-1.55-2.45-3.1-4.91-4.62-7.5-.77-1.32-1.49-2.68-2.16-4.05-1.27-2.46-2.26-5.06-2.93-7.75,0-.26-.18-.49-.45-.53-.12-.03-.25-.03-.37,0-.03,0-.07,.04-.1,.05-.04,.02-.1,.06-.14,.08,.02-.03,.07-.1,.08-.11-49.22,28.83-65.92,82.15-67.45,108.83,2.28-.16,4.56-.35,6.88-.35,36.73,0,68.72,20.19,85.85,50.13-10.46-7.35-29.2-14.61-47.24-11.47,70.47,35.23,51.55,156.56-46.1,151.98-8.7-.35-17.29-2.01-25.49-4.92-1.94-.73-3.86-1.51-5.76-2.35-1.11-.5-2.21-1.01-3.3-1.58,.04,.03,.09,.06,.13,.08-.96-.46-1.91-.93-2.85-1.42,.92,.44,1.78,.92,2.72,1.34-23.93-12.37-43.69-35.74-46.15-64.12,0,0,9.04-33.7,64.76-33.7,6.02,0,23.24-16.81,23.56-21.68-.07-1.59-34.17-15.16-47.47-28.25-7.1-7-10.48-10.37-13.46-12.9-1.62-1.37-3.31-2.65-5.08-3.83-4.47-15.62-4.66-32.16-.55-47.88-20.13,9.16-35.78,23.65-47.16,36.44h-.09c-7.77-9.84-7.22-42.29-6.78-49.07-.09-.42-5.79,2.96-6.54,3.47-6.85,4.89-13.26,10.38-19.15,16.4-6.7,6.79-12.81,14.13-18.29,21.94,0,0,0,.02,0,.03,0-.01,0-.02,0-.03-12.6,17.85-21.53,38.03-26.29,59.36-.09,.42-.17,.87-.26,1.29-.37,1.73-2.03,10.48-2.26,12.36-.02,.14,.02-.14,0,0-1.51,9.05-2.48,18.17-2.89,27.34,0,.33-.02,.67-.02,1,0,108.2,87.72,195.91,195.93,195.91,96.91,0,177.37-70.35,193.13-162.76,.33-2.51,.6-5.03,.89-7.56,3.89-33.6-.43-68.91-12.71-98.44Zm-19.44,10.06c0,.07,.02,.14,.03,.21v-.02s-.03-.19-.03-.19Z"/></g></svg>