<?xml version="1.0" encoding="UTF-8"?><svg id="a" xmlns="http://www.w3.org/2000/svg" width="198.39" height="30" viewBox="0 0 198.39 30"><rect width="93.48" height="30" style="fill:none;"/><rect x="93.48" width="104.91" height="30"/><path d="M193.68,21.53c-.2,.06-.38,.09-.55,.09-.61,0-.9-.26-.9-1.02v-5.7c0-3-2.39-4.45-5.21-4.45-2.16,0-3.32,.26-5.62,1.19l-.51,3.02,3,.32,.42-1.48c.61-.32,1.22-.38,2.01-.38,2.12,0,2.16,1.6,2.16,2.94v.44c-.67-.09-1.43-.12-2.16-.12-3,0-6.11,.76-6.11,3.99,0,2.73,2.15,3.76,4.04,3.76,2.12,0,3.46-1.28,4.22-2.62,.17,1.6,1.13,2.62,2.88,2.62,.81,0,1.66-.23,2.36-.61l-.02-1.98h0Zm-8.06-.09c-1.13,0-1.54-.67-1.54-1.52,0-1.43,1.16-1.8,2.5-1.8,.61,0,1.28,.09,1.89,.17-.09,2.19-1.52,3.15-2.85,3.15Zm-5.04-17.64l-5.68,20.02h-3.7l5.68-20.02h3.7Zm-7.62,0l-5.68,20.02h-3.69l5.68-20.02h3.69Zm-15.76,6.9h3.93v4.71h-3.93v-4.71Zm0,8.41h3.93v4.72h-3.93v-4.72Zm-5.72-.17l2.97,.29-.81,4.6h-11.47l-.38-1.98,7.22-8.29h-4.1l-.58,2.04-2.71-.29,.47-4.6h11.52l.29,1.98-7.28,8.3h4.25l.61-2.04h0Zm-18.81-8.51c-4.72,0-7.04,3.17-7.04,7.01,0,4.19,2.8,6.66,6.84,6.66s7.22-2.65,7.22-6.84c0-3.67-2.3-6.84-7.01-6.84h-.01Zm-.09,10.81c-2.04,0-3.08-1.75-3.08-4.02,0-2.48,1.19-3.9,3.12-3.9,1.77,0,3.2,1.19,3.2,3.84,0,2.5-1.28,4.08-3.23,4.08h0Zm-10.33-.26h1.75v2.85h-5.5v-7.39c0-2.27-.76-3.14-2.24-3.14-1.8,0-2.53,1.28-2.53,3.12v4.56h1.75v2.85h-5.5v-7.39c0-2.27-.76-3.14-2.24-3.14-1.8,0-2.53,1.28-2.53,3.12v4.56h2.5v2.85h-8v-2.85h1.75v-7.42h-1.75v-2.85h5.5v1.98c.79-1.4,2.16-2.24,3.99-2.24s3.64,.9,4.28,2.82c.73-1.75,2.21-2.82,4.28-2.82,2.36,0,4.51,1.43,4.51,4.54v6h-.02Z" style="fill:#fff;"/><g><path d="M20.89,24.02h-5.58v-2.48c-.37,.77-.93,1.42-1.65,1.96-.73,.54-1.69,.81-2.89,.81-1.75,0-3.13-.6-4.13-1.8-1-1.2-1.5-2.83-1.5-4.9s.49-3.68,1.48-5.08c.98-1.4,2.47-2.1,4.46-2.1,1.08,0,1.97,.22,2.66,.65,.69,.43,1.22,.98,1.59,1.65V6.6h-2.66V3.71h6.46V21.15h1.77v2.86h-.01Zm-5.58-6.72v-.32c0-1.1-.29-1.96-.87-2.58s-1.3-.93-2.17-.93-1.59,.31-2.23,.94c-.64,.63-.96,1.62-.96,2.98,0,1.28,.3,2.25,.89,2.92s1.29,1,2.1,1c1,0,1.8-.42,2.38-1.27s.87-1.76,.87-2.74h-.01Z"/><path d="M23.31,11.65c1.16-.47,2.13-.79,2.91-.96s1.71-.25,2.79-.25c1.44,0,2.68,.37,3.72,1.12s1.56,1.88,1.56,3.39v5.78c0,.69,.31,1.03,.92,1.03,.18,0,.36-.03,.56-.09l.03,2.01c-.77,.41-1.56,.62-2.39,.62-1.75,0-2.73-.88-2.92-2.63v-.03c-.37,.67-.91,1.28-1.61,1.83s-1.59,.83-2.67,.83c-.96,0-1.89-.29-2.77-.86-.89-.57-1.33-1.55-1.33-2.95,0-1.63,.65-2.72,1.96-3.25,1.31-.53,2.72-.8,4.23-.8,.85,0,1.57,.04,2.18,.12v-.44c0-.69-.09-1.36-.28-2.01-.19-.65-.82-.97-1.9-.97-.39,0-.75,.02-1.08,.07-.32,.05-.64,.15-.96,.31l-.5,1.89-3.04-.32,.59-3.45h0Zm7.17,6.95v-.18c-.31-.04-.63-.08-.96-.12-.32-.04-.65-.06-.96-.06-.67,0-1.26,.12-1.77,.37s-.77,.73-.77,1.46c0,.43,.12,.8,.35,1.09,.24,.29,.64,.44,1.21,.44,.67,0,1.29-.24,1.87-.72s.92-1.24,1.02-2.29h0Z"/><path d="M48.21,19.88c-.2,1.53-.73,2.66-1.59,3.36-.87,.71-1.99,1.06-3.36,1.06-1.48,0-2.67-.37-3.59-1.11s-1.37-1.8-1.37-3.17v-6.61h-1.89v-2.72h1.89V6.66h3.81v4.04h4.78v2.72h-4.78v5.96c0,1.16,.53,1.74,1.59,1.74,.24,0,.56-.1,.96-.31,.4-.21,.66-.8,.78-1.79l2.77,.86Z"/><path d="M49.99,11.65c1.16-.47,2.13-.79,2.91-.96s1.71-.25,2.79-.25c1.44,0,2.68,.37,3.72,1.12s1.56,1.88,1.56,3.39v5.78c0,.69,.31,1.03,.92,1.03,.18,0,.36-.03,.56-.09l.03,2.01c-.77,.41-1.56,.62-2.39,.62-1.75,0-2.73-.88-2.92-2.63v-.03c-.37,.67-.91,1.28-1.61,1.83s-1.59,.83-2.67,.83c-.96,0-1.89-.29-2.77-.86-.89-.57-1.33-1.55-1.33-2.95,0-1.63,.65-2.72,1.96-3.25,1.31-.53,2.72-.8,4.23-.8,.85,0,1.57,.04,2.18,.12v-.44c0-.69-.09-1.36-.28-2.01-.19-.65-.82-.97-1.9-.97-.39,0-.75,.02-1.08,.07-.32,.05-.64,.15-.96,.31l-.5,1.89-3.04-.32,.59-3.45h0Zm7.17,6.95v-.18c-.31-.04-.63-.08-.96-.12-.32-.04-.65-.06-.96-.06-.67,0-1.26,.12-1.77,.37-.51,.25-.77,.73-.77,1.46,0,.43,.12,.8,.35,1.09,.24,.29,.64,.44,1.21,.44,.67,0,1.29-.24,1.87-.72,.58-.48,.92-1.24,1.02-2.29h.01Z"/><path d="M71.53,11.65c.83-.47,1.63-.79,2.42-.96s1.54-.25,2.27-.25c1.91,0,3.36,.41,4.35,1.24s1.49,1.92,1.49,3.28v5.78c0,.37,.13,.64,.38,.8,.26,.16,.52,.24,.8,.24,.81,0,1.33-.48,1.58-1.43s.37-1.97,.37-3.05c0-3.68-.84-6.22-2.51-7.63-1.67-1.41-3.73-2.11-6.17-2.11-2.93,0-5.26,.84-6.99,2.51-1.73,1.67-2.6,4.08-2.6,7.23,0,2.4,.48,4.32,1.43,5.77s2.18,2.49,3.69,3.13c1.51,.64,3.07,.96,4.71,.96,.9,0,1.88-.11,2.94-.32,1.05-.22,2.02-.64,2.91-1.27l1.24,2.3c-.94,.63-2.07,1.14-3.38,1.53-1.31,.39-2.72,.59-4.24,.59-2.26,0-4.34-.48-6.23-1.45-1.89-.96-3.4-2.36-4.53-4.19s-1.7-4.04-1.7-6.64c0-2.44,.52-4.64,1.56-6.6,1.04-1.96,2.51-3.51,4.4-4.66,1.89-1.15,4.1-1.73,6.64-1.73,1.93,0,3.81,.38,5.65,1.14,1.84,.76,3.35,1.96,4.54,3.6s1.79,3.79,1.79,6.45c0,1.28-.19,2.57-.56,3.87s-.99,2.38-1.86,3.25c-.87,.87-2.04,1.3-3.51,1.3-1.06,0-1.98-.24-2.76-.72s-1.23-1.14-1.37-1.96c-.39,.69-.94,1.31-1.64,1.86-.7,.55-1.59,.83-2.67,.83-.96,0-1.91-.29-2.85-.86-.94-.57-1.4-1.55-1.4-2.95,0-1.1,.32-1.94,.96-2.52s1.45-.98,2.44-1.2c.98-.22,2-.32,3.04-.32,.31,0,.66,.01,1.03,.03,.37,.02,.73,.05,1.06,.09v-.44c0-1.18-.15-1.97-.46-2.38-.31-.4-.82-.6-1.55-.6-.22,0-.49,.02-.81,.07-.32,.05-.65,.15-.96,.31l-.71,2.04-2.89-.32,.65-3.6v-.04Zm6.74,6.76c-.31-.04-.63-.08-.96-.12-.32-.04-.65-.06-.96-.06-.69,0-1.28,.12-1.79,.37-.5,.25-.75,.73-.75,1.46,0,.43,.12,.8,.35,1.09,.24,.29,.64,.44,1.21,.44,.67,0,1.3-.25,1.9-.74s.93-1.28,.99-2.36v-.09h.01Z"/></g></svg>